<?xml version="1.0" encoding="UTF-8"?>
<svg xmlns="http://www.w3.org/2000/svg" xmlns:xlink="http://www.w3.org/1999/xlink" width="705pt" height="591.000005pt" viewBox="0 0 705 591.000005" version="1.2">
<defs>
<clipPath id="clip1">
  <path d="M 114.402344 17.640625 L 628 17.640625 L 628 381 L 114.402344 381 Z M 114.402344 17.640625 "/>
</clipPath>
<clipPath id="clip2">
  <path d="M 114.402344 300 L 363 300 L 363 548.351562 L 114.402344 548.351562 Z M 114.402344 300 "/>
</clipPath>
<clipPath id="clip3">
  <path d="M 415 212 L 645.113281 212 L 645.113281 548.351562 L 415 548.351562 Z M 415 212 "/>
</clipPath>
</defs>
<g id="surface1">
<path style=" stroke:none;fill-rule:nonzero;fill:rgb(35.289001%,66.668701%,90.589905%);fill-opacity:1;" d="M 618.578125 97.246094 L 618.578125 468.746094 C 618.578125 475.484375 614.777344 481.289062 609.285156 484.328125 C 606.796875 485.640625 603.894531 486.4375 600.886719 486.4375 L 140.9375 486.4375 C 131.195312 486.4375 123.25 478.488281 123.25 468.746094 L 123.25 97.246094 L 618.578125 97.246094 "/>
<path style=" stroke:none;fill-rule:nonzero;fill:rgb(100%,31.369019%,13.729858%);fill-opacity:1;" d="M 618.578125 44.175781 L 618.578125 97.246094 L 123.25 97.246094 L 123.25 44.175781 C 123.25 34.433594 131.195312 26.484375 140.9375 26.484375 L 600.886719 26.484375 C 610.597656 26.484375 618.578125 34.433594 618.578125 44.175781 "/>
<path style=" stroke:none;fill-rule:nonzero;fill:rgb(23.919678%,60.389709%,88.62915%);fill-opacity:1;" d="M 370.914062 424.519531 L 370.914062 459.902344 L 341.542969 464.046875 C 339.507812 472.097656 336.394531 479.628906 332.355469 486.4375 L 179.496094 486.4375 C 175.421875 479.628906 172.347656 472.097656 170.308594 464.046875 L 140.9375 459.902344 L 140.9375 424.519531 L 170.308594 420.375 C 172.414062 412.046875 175.695312 404.273438 179.945312 397.1875 L 162.082031 373.382812 L 187.097656 348.367188 L 210.90625 366.230469 C 217.988281 361.980469 225.761719 358.699219 234.089844 356.589844 L 238.234375 327.222656 L 273.617188 327.222656 L 277.761719 356.589844 C 286.089844 358.699219 293.863281 361.980469 300.945312 366.230469 L 324.753906 348.367188 L 349.769531 373.382812 L 331.90625 397.1875 C 336.15625 404.273438 339.4375 412.046875 341.542969 420.375 L 370.914062 424.519531 "/>
<path style=" stroke:none;fill-rule:nonzero;fill:rgb(100%,59.609985%,6.669617%);fill-opacity:1;" d="M 323.855469 446.355469 C 321.746094 454.683594 318.464844 462.457031 314.214844 469.539062 L 326.859375 486.4375 L 332.078125 493.347656 L 307.0625 518.363281 L 283.257812 500.5 C 276.171875 504.75 268.398438 508.03125 260.070312 510.136719 L 255.925781 539.507812 L 220.546875 539.507812 L 216.398438 510.136719 C 208.070312 508.03125 200.296875 504.75 193.214844 500.5 L 169.410156 518.363281 L 144.394531 493.347656 L 149.609375 486.4375 L 162.257812 469.539062 C 158.007812 462.457031 154.722656 454.683594 152.617188 446.355469 L 123.25 442.210938 L 123.25 406.828125 L 152.617188 402.683594 C 154.722656 394.355469 158.007812 386.582031 162.257812 379.5 L 144.394531 355.691406 L 169.410156 330.679688 L 193.214844 348.539062 C 200.296875 344.292969 208.070312 341.007812 216.398438 338.902344 L 220.546875 309.53125 L 255.925781 309.53125 L 260.070312 338.902344 C 268.398438 341.007812 276.171875 344.292969 283.257812 348.539062 L 307.0625 330.679688 L 332.078125 355.691406 L 314.214844 379.5 C 318.464844 386.582031 321.746094 394.355469 323.855469 402.683594 L 353.222656 406.828125 L 353.222656 442.210938 L 323.855469 446.355469 "/>
<path style=" stroke:none;fill-rule:nonzero;fill:rgb(100%,83.139038%,13.328552%);fill-opacity:1;" d="M 238.234375 380.292969 C 262.664062 380.292969 282.460938 400.089844 282.460938 424.519531 C 282.460938 448.949219 262.664062 468.746094 238.234375 468.746094 C 213.808594 468.746094 194.007812 448.949219 194.007812 424.519531 C 194.007812 400.089844 213.808594 380.292969 238.234375 380.292969 "/>
<path style=" stroke:none;fill-rule:nonzero;fill:rgb(23.919678%,60.389709%,88.62915%);fill-opacity:1;" d="M 609.734375 344.914062 L 609.734375 362.601562 L 618.578125 362.601562 L 618.578125 397.984375 L 609.007812 397.984375 C 606.105469 418.851562 592.769531 436.371094 574.351562 445.042969 L 574.351562 468.746094 L 598.226562 479.351562 L 609.285156 484.328125 C 606.796875 485.640625 603.894531 486.4375 600.886719 486.4375 L 481.476562 486.4375 L 497.40625 479.351562 L 521.28125 468.746094 L 521.28125 445.042969 C 514.820312 442.039062 508.980469 437.890625 504.039062 432.914062 C 494.746094 423.621094 488.457031 411.597656 486.625 397.984375 L 477.054688 397.984375 C 467.347656 397.984375 459.367188 390.039062 459.367188 380.292969 C 459.367188 370.550781 467.347656 362.601562 477.054688 362.601562 L 485.902344 362.601562 L 485.902344 344.914062 C 481.027344 344.914062 476.605469 342.976562 473.425781 339.695312 C 470.144531 336.515625 468.210938 332.09375 468.210938 327.222656 C 468.210938 317.480469 476.191406 309.53125 485.902344 309.53125 C 485.902344 306.527344 486.175781 303.519531 486.695312 300.6875 C 490.425781 278.46875 507.910156 260.988281 530.125 257.253906 L 530.125 247.617188 C 530.125 242.742188 534.101562 238.769531 538.972656 238.769531 L 556.664062 238.769531 C 561.535156 238.769531 565.507812 242.742188 565.507812 247.617188 L 565.507812 257.253906 C 576.667969 259.019531 586.550781 264.339844 594.152344 272.042969 C 601.855469 279.644531 607.175781 289.527344 608.9375 300.6875 C 609.457031 303.519531 609.734375 306.527344 609.734375 309.53125 C 612.914062 309.53125 616.023438 310.429688 618.578125 311.917969 L 618.578125 342.527344 C 616.023438 344.015625 612.914062 344.914062 609.734375 344.914062 "/>
<path style=" stroke:none;fill-rule:nonzero;fill:rgb(23.919678%,60.389709%,88.62915%);fill-opacity:1;" d="M 636.269531 520.917969 L 636.269531 539.507812 L 556.664062 539.507812 L 540.5625 484.847656 L 547.816406 477.589844 L 574.351562 486.4375 L 580.539062 461.664062 L 604.792969 472.441406 C 623.863281 480.941406 636.269531 499.980469 636.269531 520.917969 "/>
<path style=" stroke:none;fill-rule:nonzero;fill:rgb(96.859741%,56.858826%,4.708862%);fill-opacity:1;" d="M 604.515625 297.058594 C 607.796875 300.238281 609.734375 304.660156 609.734375 309.53125 C 609.734375 319.277344 601.753906 327.222656 592.042969 327.222656 L 468.210938 327.222656 C 463.339844 327.222656 458.917969 325.289062 455.738281 322.003906 C 452.453125 318.828125 450.519531 314.402344 450.519531 309.53125 C 450.519531 299.789062 458.5 291.84375 468.210938 291.84375 L 592.042969 291.84375 C 596.914062 291.84375 601.335938 293.777344 604.515625 297.058594 "/>
<path style=" stroke:none;fill-rule:nonzero;fill:rgb(100%,59.609985%,6.669617%);fill-opacity:1;" d="M 592.042969 291.84375 L 547.816406 291.84375 L 547.816406 239.566406 C 558.976562 241.328125 568.859375 246.648438 576.460938 254.351562 C 584.164062 261.953125 589.484375 271.835938 591.25 282.996094 C 591.765625 285.828125 592.042969 288.835938 592.042969 291.84375 "/>
<path style=" stroke:none;fill-rule:nonzero;fill:rgb(11.759949%,50.588989%,80.778503%);fill-opacity:1;" d="M 580.539062 461.664062 L 574.351562 486.4375 L 547.816406 477.589844 L 538.972656 459.902344 L 556.664062 451.054688 L 580.539062 461.664062 "/>
<path style=" stroke:none;fill-rule:nonzero;fill:rgb(92.939758%,10.978699%,14.118958%);fill-opacity:1;" d="M 540.5625 484.847656 L 556.664062 539.507812 L 503.589844 539.507812 L 519.691406 484.847656 L 530.125 495.28125 L 540.5625 484.847656 "/>
<path style=" stroke:none;fill-rule:nonzero;fill:rgb(100%,65.489197%,19.999695%);fill-opacity:1;" d="M 547.816406 239.566406 L 547.816406 291.84375 L 512.4375 291.84375 L 512.4375 229.925781 C 512.4375 225.054688 516.410156 221.082031 521.28125 221.082031 L 538.972656 221.082031 C 543.84375 221.082031 547.816406 225.054688 547.816406 229.925781 L 547.816406 239.566406 "/>
<path style=" stroke:none;fill-rule:nonzero;fill:rgb(92.939758%,10.978699%,14.118958%);fill-opacity:1;" d="M 538.972656 459.902344 L 547.816406 477.589844 L 530.125 495.28125 L 512.4375 477.589844 L 521.28125 459.902344 L 538.972656 459.902344 "/>
<path style=" stroke:none;fill-rule:nonzero;fill:rgb(11.759949%,50.588989%,80.778503%);fill-opacity:1;" d="M 521.28125 459.902344 L 512.4375 477.589844 L 485.902344 486.4375 L 479.714844 461.664062 L 503.589844 451.054688 L 521.28125 459.902344 "/>
<path style=" stroke:none;fill-rule:nonzero;fill:rgb(23.919678%,60.389709%,88.62915%);fill-opacity:1;" d="M 519.691406 484.847656 L 503.589844 539.507812 L 423.984375 539.507812 L 423.984375 520.917969 C 423.984375 499.980469 436.386719 480.941406 455.460938 472.441406 L 479.714844 461.664062 L 485.902344 486.4375 L 512.4375 477.589844 L 519.691406 484.847656 "/>
<path style=" stroke:none;fill-rule:nonzero;fill:rgb(100%,59.609985%,6.669617%);fill-opacity:1;" d="M 512.4375 239.566406 L 512.4375 291.84375 L 468.210938 291.84375 C 468.210938 288.835938 468.488281 285.828125 469.003906 282.996094 C 472.738281 260.78125 490.21875 243.296875 512.4375 239.566406 "/>
<path style=" stroke:none;fill-rule:nonzero;fill:rgb(100%,76.858521%,46.669006%);fill-opacity:1;" d="M 556.664062 424.519531 L 556.664062 451.054688 L 538.972656 459.902344 L 521.28125 459.902344 L 503.589844 451.054688 L 503.589844 424.519531 L 556.664062 424.519531 "/>
<path style=" stroke:none;fill-rule:nonzero;fill:rgb(100%,71.369934%,33.329773%);fill-opacity:1;" d="M 477.054688 344.914062 L 477.054688 380.292969 L 459.367188 380.292969 C 449.65625 380.292969 441.675781 372.347656 441.675781 362.601562 C 441.675781 352.859375 449.65625 344.914062 459.367188 344.914062 L 477.054688 344.914062 "/>
<path style=" stroke:none;fill-rule:nonzero;fill:rgb(100%,71.369934%,33.329773%);fill-opacity:1;" d="M 618.578125 362.601562 C 618.578125 372.347656 610.597656 380.292969 600.886719 380.292969 L 583.199219 380.292969 L 583.199219 344.914062 L 600.886719 344.914062 C 610.597656 344.914062 618.578125 352.859375 618.578125 362.601562 "/>
<path style=" stroke:none;fill-rule:nonzero;fill:rgb(100%,71.369934%,33.329773%);fill-opacity:1;" d="M 556.664062 424.519531 L 556.664062 445.042969 C 548.613281 448.949219 539.699219 451.054688 530.125 451.054688 C 520.554688 451.054688 511.640625 448.949219 503.589844 445.042969 L 503.589844 424.519531 L 556.664062 424.519531 "/>
<path style=" stroke:none;fill-rule:nonzero;fill:rgb(100%,76.858521%,46.669006%);fill-opacity:1;" d="M 592.042969 344.914062 L 592.042969 371.449219 C 592.042969 374.453125 591.871094 377.460938 591.316406 380.292969 C 588.414062 401.164062 575.078125 418.679688 556.664062 427.351562 C 548.613281 431.257812 539.699219 433.363281 530.125 433.363281 C 520.554688 433.363281 511.640625 431.257812 503.589844 427.351562 C 497.128906 424.347656 491.289062 420.199219 486.351562 415.226562 C 477.054688 405.929688 470.765625 393.90625 468.9375 380.292969 C 468.382812 377.460938 468.210938 374.453125 468.210938 371.449219 L 468.210938 327.222656 L 592.042969 327.222656 L 592.042969 344.914062 "/>
<path style=" stroke:none;fill-rule:nonzero;fill:rgb(100%,71.369934%,33.329773%);fill-opacity:1;" d="M 468.210938 327.222656 L 468.210938 344.914062 L 592.042969 344.914062 L 592.042969 327.222656 L 468.210938 327.222656 "/>
<path style=" stroke:none;fill-rule:nonzero;fill:rgb(0%,0%,0%);fill-opacity:1;" d="M 185.164062 53.023438 L 167.472656 53.023438 L 167.472656 70.710938 L 185.164062 70.710938 L 185.164062 53.023438 "/>
<path style=" stroke:none;fill-rule:nonzero;fill:rgb(0%,0%,0%);fill-opacity:1;" d="M 220.546875 53.023438 L 202.855469 53.023438 L 202.855469 70.710938 L 220.546875 70.710938 L 220.546875 53.023438 "/>
<path style=" stroke:none;fill-rule:nonzero;fill:rgb(0%,0%,0%);fill-opacity:1;" d="M 255.925781 53.023438 L 238.234375 53.023438 L 238.234375 70.710938 L 255.925781 70.710938 L 255.925781 53.023438 "/>
<g clip-path="url(#clip1)" clip-rule="nonzero">
<path style=" stroke:none;fill-rule:nonzero;fill:rgb(0%,0%,0%);fill-opacity:1;" d="M 140.9375 35.332031 L 600.886719 35.332031 C 605.761719 35.332031 609.734375 39.304688 609.734375 44.175781 L 609.734375 88.402344 L 132.09375 88.402344 L 132.09375 44.175781 C 132.09375 39.304688 136.066406 35.332031 140.9375 35.332031 Z M 132.09375 106.09375 L 609.734375 106.09375 L 609.734375 265.304688 L 627.425781 265.304688 L 627.425781 44.175781 C 627.425781 29.527344 615.539062 17.640625 600.886719 17.640625 L 140.9375 17.640625 C 126.289062 17.640625 114.402344 29.527344 114.402344 44.175781 L 114.402344 380.292969 L 132.09375 380.292969 L 132.09375 106.09375 "/>
</g>
<path style=" stroke:none;fill-rule:nonzero;fill:rgb(0%,0%,0%);fill-opacity:1;" d="M 353.222656 495.28125 L 406.292969 495.28125 L 406.292969 477.589844 L 353.222656 477.589844 L 353.222656 495.28125 "/>
<path style=" stroke:none;fill-rule:nonzero;fill:rgb(0%,0%,0%);fill-opacity:1;" d="M 538.972656 53.023438 L 308.996094 53.023438 L 308.996094 70.710938 L 538.972656 70.710938 L 538.972656 53.023438 "/>
<path style=" stroke:none;fill-rule:nonzero;fill:rgb(0%,0%,0%);fill-opacity:1;" d="M 258.515625 144.066406 L 231.980469 170.601562 C 228.527344 174.054688 228.527344 179.652344 231.980469 183.109375 L 258.515625 209.644531 L 271.023438 197.136719 L 250.742188 176.855469 L 271.023438 156.574219 L 258.515625 144.066406 "/>
<path style=" stroke:none;fill-rule:nonzero;fill:rgb(0%,0%,0%);fill-opacity:1;" d="M 309.550781 138.363281 L 283.015625 209.125 L 299.597656 215.34375 L 326.132812 144.582031 L 309.550781 138.363281 "/>
<path style=" stroke:none;fill-rule:nonzero;fill:rgb(0%,0%,0%);fill-opacity:1;" d="M 350.632812 209.644531 L 377.167969 183.109375 C 380.621094 179.652344 380.621094 174.054688 377.167969 170.601562 L 350.632812 144.066406 L 338.125 156.574219 L 358.40625 176.855469 L 338.125 197.136719 L 350.632812 209.644531 "/>
<path style=" stroke:none;fill-rule:nonzero;fill:rgb(0%,0%,0%);fill-opacity:1;" d="M 291.308594 229.925781 L 255.925781 229.925781 L 255.925781 247.617188 L 291.308594 247.617188 L 291.308594 229.925781 "/>
<path style=" stroke:none;fill-rule:nonzero;fill:rgb(0%,0%,0%);fill-opacity:1;" d="M 379.757812 229.925781 L 308.996094 229.925781 L 308.996094 247.617188 L 379.757812 247.617188 L 379.757812 229.925781 "/>
<path style=" stroke:none;fill-rule:nonzero;fill:rgb(0%,0%,0%);fill-opacity:1;" d="M 308.996094 265.304688 L 273.617188 265.304688 L 273.617188 282.996094 L 308.996094 282.996094 L 308.996094 265.304688 "/>
<path style=" stroke:none;fill-rule:nonzero;fill:rgb(0%,0%,0%);fill-opacity:1;" d="M 397.449219 265.304688 L 326.6875 265.304688 L 326.6875 282.996094 L 397.449219 282.996094 L 397.449219 265.304688 "/>
<g clip-path="url(#clip2)" clip-rule="nonzero">
<path style=" stroke:none;fill-rule:nonzero;fill:rgb(0%,0%,0%);fill-opacity:1;" d="M 307.164062 474.894531 L 320.363281 492.484375 L 306.199219 506.648438 L 288.613281 493.449219 C 285.742188 491.308594 281.839844 491.101562 278.800781 492.933594 C 272.304688 496.765625 265.289062 499.703125 257.929688 501.570312 C 254.476562 502.433594 251.882812 505.335938 251.363281 508.894531 L 248.253906 530.660156 L 228.214844 530.660156 L 225.105469 508.894531 C 224.585938 505.335938 221.996094 502.433594 218.542969 501.570312 C 211.183594 499.703125 204.167969 496.765625 197.671875 492.933594 C 194.597656 491.101562 190.726562 491.308594 187.859375 493.449219 L 170.273438 506.648438 L 156.105469 492.484375 L 169.304688 474.894531 C 171.449219 472.027344 171.65625 468.160156 169.824219 465.082031 C 165.988281 458.585938 163.050781 451.574219 161.1875 444.214844 C 160.320312 440.757812 157.417969 438.167969 153.859375 437.648438 L 132.09375 434.539062 L 132.09375 414.5 L 153.859375 411.390625 C 157.417969 410.871094 160.320312 408.28125 161.1875 404.824219 C 163.050781 397.464844 165.988281 390.453125 169.824219 383.957031 C 171.65625 380.882812 171.449219 377.011719 169.304688 374.144531 L 156.105469 356.558594 L 170.273438 342.390625 L 187.859375 355.589844 C 190.726562 357.730469 194.597656 357.9375 197.671875 356.109375 C 204.167969 352.273438 211.183594 349.335938 218.542969 347.46875 C 221.996094 346.605469 224.585938 343.703125 225.105469 340.179688 L 228.214844 318.378906 L 248.253906 318.378906 L 251.363281 340.179688 C 251.882812 343.703125 254.476562 346.605469 257.929688 347.46875 C 265.289062 349.335938 272.304688 352.273438 278.800781 356.109375 C 281.875 357.9375 285.742188 357.730469 288.613281 355.589844 L 306.199219 342.390625 L 320.363281 356.558594 L 307.164062 374.144531 C 305.023438 377.011719 304.816406 380.882812 306.648438 383.957031 C 310.484375 390.453125 313.386719 397.464844 315.285156 404.824219 C 316.148438 408.28125 319.050781 410.871094 322.574219 411.390625 L 344.378906 414.5 L 344.378906 434.539062 L 322.574219 437.648438 C 319.050781 438.167969 316.148438 440.757812 315.285156 444.214844 C 313.386719 451.574219 310.484375 458.585938 306.648438 465.082031 C 304.816406 468.160156 305.023438 472.027344 307.164062 474.894531 Z M 324.753906 468.847656 C 327.136719 464.183594 329.140625 459.347656 330.765625 454.335938 L 354.46875 450.953125 C 358.820312 450.328125 362.066406 446.597656 362.066406 442.210938 L 362.066406 406.828125 C 362.066406 402.441406 358.820312 398.710938 354.46875 398.085938 L 330.765625 394.703125 C 329.140625 389.691406 327.136719 384.855469 324.753906 380.191406 L 339.125 361.015625 C 341.785156 357.488281 341.40625 352.582031 338.296875 349.472656 L 313.28125 324.457031 C 310.171875 321.347656 305.230469 321.003906 301.742188 323.628906 L 282.566406 338.003906 C 277.902344 335.617188 273.0625 333.613281 268.054688 331.992188 L 264.667969 308.289062 C 264.046875 303.933594 260.3125 300.6875 255.925781 300.6875 L 220.546875 300.6875 C 216.15625 300.6875 212.425781 303.933594 211.804688 308.289062 L 208.417969 331.992188 C 203.40625 333.613281 198.570312 335.617188 193.90625 338.003906 L 174.730469 323.628906 C 171.238281 320.96875 166.265625 321.347656 163.191406 324.457031 L 138.175781 349.472656 C 135.066406 352.582031 134.683594 357.488281 137.34375 361.015625 L 151.71875 380.191406 C 149.335938 384.855469 147.332031 389.691406 145.707031 394.703125 L 122.003906 398.085938 C 117.652344 398.710938 114.402344 402.441406 114.402344 406.828125 L 114.402344 442.210938 C 114.402344 446.597656 117.652344 450.328125 122.003906 450.953125 L 145.707031 454.335938 C 147.332031 459.347656 149.335938 464.183594 151.71875 468.847656 L 137.34375 488.023438 C 134.683594 491.550781 135.066406 496.457031 138.175781 499.566406 L 163.191406 524.582031 C 166.300781 527.691406 171.238281 528.070312 174.730469 525.410156 L 193.90625 511.035156 C 198.570312 513.421875 203.40625 515.425781 208.417969 517.046875 L 211.804688 540.75 C 212.425781 545.105469 216.15625 548.351562 220.546875 548.351562 L 255.925781 548.351562 C 260.3125 548.351562 264.046875 545.105469 264.667969 540.75 L 268.054688 517.046875 C 273.0625 515.425781 277.902344 513.421875 282.566406 511.035156 L 301.742188 525.410156 C 305.230469 528.035156 310.171875 527.691406 313.28125 524.582031 L 338.296875 499.566406 C 341.40625 496.457031 341.785156 491.550781 339.125 488.023438 L 324.753906 468.847656 "/>
</g>
<path style=" stroke:none;fill-rule:nonzero;fill:rgb(0%,0%,0%);fill-opacity:1;" d="M 238.234375 459.902344 C 218.714844 459.902344 202.855469 444.042969 202.855469 424.519531 C 202.855469 405 218.714844 389.140625 238.234375 389.140625 C 257.757812 389.140625 273.617188 405 273.617188 424.519531 C 273.617188 444.042969 257.757812 459.902344 238.234375 459.902344 Z M 238.234375 371.449219 C 208.96875 371.449219 185.164062 395.253906 185.164062 424.519531 C 185.164062 453.785156 208.96875 477.589844 238.234375 477.589844 C 267.5 477.589844 291.308594 453.785156 291.308594 424.519531 C 291.308594 395.253906 267.5 371.449219 238.234375 371.449219 "/>
<path style=" stroke:none;fill-rule:nonzero;fill:rgb(0%,0%,0%);fill-opacity:1;" d="M 494.746094 371.449219 L 512.4375 371.449219 L 512.4375 353.757812 L 494.746094 353.757812 L 494.746094 371.449219 "/>
<path style=" stroke:none;fill-rule:nonzero;fill:rgb(0%,0%,0%);fill-opacity:1;" d="M 565.507812 353.757812 L 547.816406 353.757812 L 547.816406 371.449219 L 565.507812 371.449219 L 565.507812 353.757812 "/>
<g clip-path="url(#clip3)" clip-rule="nonzero">
<path style=" stroke:none;fill-rule:nonzero;fill:rgb(0%,0%,0%);fill-opacity:1;" d="M 627.425781 530.660156 L 563.296875 530.660156 L 550.648438 487.851562 L 571.519531 494.832031 C 572.488281 495.109375 573.386719 495.28125 574.351562 495.28125 C 575.839844 495.28125 577.289062 494.9375 578.601562 494.210938 C 580.8125 492.964844 582.335938 490.960938 582.921875 488.542969 L 586.550781 474.066406 L 601.164062 480.527344 C 617.160156 487.578125 627.425781 503.503906 627.425781 520.917969 Z M 547.816406 445.5625 L 536.863281 451.054688 L 523.390625 451.054688 L 512.4375 445.5625 L 512.4375 439.894531 C 518.101562 441.3125 524.011719 442.210938 530.125 442.210938 C 536.242188 442.210938 542.152344 441.3125 547.816406 439.894531 Z M 523.214844 475.828125 L 526.773438 468.746094 L 533.476562 468.746094 L 537.035156 475.828125 L 530.125 482.808594 Z M 515.441406 530.660156 L 523.941406 501.570312 C 525.703125 503.226562 527.914062 504.125 530.125 504.125 C 532.339844 504.125 534.550781 503.226562 536.3125 501.570312 L 544.8125 530.660156 Z M 496.957031 530.660156 L 432.828125 530.660156 L 432.828125 520.917969 C 432.828125 503.503906 443.089844 487.578125 459.089844 480.527344 L 473.703125 474.066406 L 477.332031 488.542969 C 477.917969 490.960938 479.441406 492.964844 481.652344 494.210938 C 482.964844 494.9375 484.414062 495.28125 485.902344 495.28125 C 486.867188 495.28125 487.765625 495.109375 488.734375 494.832031 L 509.601562 487.851562 Z M 503.316406 460.867188 L 509.429688 463.875 L 506.148438 470.335938 L 492.1875 475.035156 L 490.046875 466.707031 Z M 477.054688 371.449219 L 477.054688 336.066406 L 583.199219 336.066406 L 583.199219 371.449219 C 583.199219 400.714844 559.390625 424.519531 530.125 424.519531 C 500.863281 424.519531 477.054688 400.714844 477.054688 371.449219 Z M 459.367188 309.53125 C 459.367188 304.660156 463.339844 300.6875 468.210938 300.6875 L 592.042969 300.6875 C 596.914062 300.6875 600.886719 304.660156 600.886719 309.53125 C 600.886719 314.402344 596.914062 318.378906 592.042969 318.378906 L 468.210938 318.378906 C 463.339844 318.378906 459.367188 314.402344 459.367188 309.53125 Z M 503.589844 251.417969 L 503.589844 282.996094 L 477.917969 282.996094 C 480.753906 268.832031 490.425781 257.1875 503.589844 251.417969 Z M 521.28125 229.925781 L 538.972656 229.925781 L 538.972656 282.996094 L 521.28125 282.996094 Z M 556.664062 251.417969 C 561.601562 253.628906 566.300781 256.632812 570.277344 260.605469 C 576.460938 266.792969 580.640625 274.496094 582.335938 282.996094 L 556.664062 282.996094 Z M 609.734375 362.601562 C 609.734375 367.476562 605.761719 371.449219 600.886719 371.449219 L 600.886719 353.757812 C 605.761719 353.757812 609.734375 357.730469 609.734375 362.601562 Z M 570.207031 466.707031 L 568.0625 475.035156 L 554.105469 470.335938 L 550.824219 463.875 L 556.9375 460.867188 Z M 459.367188 371.449219 C 454.492188 371.449219 450.519531 367.476562 450.519531 362.601562 C 450.519531 357.730469 454.492188 353.757812 459.367188 353.757812 Z M 608.386719 464.425781 L 565.507812 445.320312 L 565.507812 432.640625 C 581.710938 423.277344 593.734375 407.625 598.574219 389.140625 L 600.886719 389.140625 C 615.503906 389.140625 627.425781 377.183594 627.425781 362.601562 C 627.425781 348.023438 615.503906 336.066406 600.886719 336.066406 L 600.886719 334.476562 C 611.148438 330.746094 618.578125 321.039062 618.578125 309.53125 C 618.578125 297.855469 610.976562 288.042969 600.4375 284.480469 C 598.78125 270.695312 592.664062 257.945312 582.75 248.132812 C 575.421875 240.707031 566.476562 235.488281 556.664062 232.65625 L 556.664062 229.925781 C 556.664062 220.183594 548.679688 212.234375 538.972656 212.234375 L 521.28125 212.234375 C 511.574219 212.234375 503.589844 220.183594 503.589844 229.925781 L 503.589844 232.585938 C 479.890625 239.566406 462.714844 259.917969 459.8125 284.480469 C 449.378906 288.042969 441.675781 297.855469 441.675781 309.53125 C 441.675781 321.039062 449.101562 330.746094 459.367188 334.476562 L 459.367188 336.066406 C 444.75 336.066406 432.828125 348.023438 432.828125 362.601562 C 432.828125 377.183594 444.75 389.140625 459.367188 389.140625 L 461.679688 389.140625 C 466.515625 407.625 478.542969 423.277344 494.746094 432.640625 L 494.746094 445.320312 L 451.867188 464.425781 C 429.546875 474.308594 415.140625 496.523438 415.140625 520.917969 L 415.140625 539.507812 C 415.140625 544.378906 419.113281 548.351562 423.984375 548.351562 L 636.269531 548.351562 C 641.140625 548.351562 645.113281 544.378906 645.113281 539.507812 L 645.113281 520.917969 C 645.113281 496.523438 630.707031 474.308594 608.386719 464.425781 "/>
</g>
</g>
</svg>
